<?xml version="1.0" encoding="UTF-8" standalone="no"?>
<svg
   xmlns:dc="http://purl.org/dc/elements/1.1/"
   xmlns:cc="http://creativecommons.org/ns#"
   xmlns:rdf="http://www.w3.org/1999/02/22-rdf-syntax-ns#"
   xmlns:svg="http://www.w3.org/2000/svg"
   xmlns="http://www.w3.org/2000/svg"
   viewBox="0 0 4160 4160"
   height="4160"
   width="4160"
   xml:space="preserve"
   id="svg2"
   version="1.1"><metadata
     id="metadata8"><rdf:RDF><cc:Work
         rdf:about=""><dc:format>image/svg+xml</dc:format><dc:type
           rdf:resource="http://purl.org/dc/dcmitype/StillImage" /></cc:Work></rdf:RDF></metadata><defs
     id="defs6" /><g
     transform="matrix(1.3333333,0,0,-1.3333333,0,4160)"
     id="g10"><g
       transform="scale(0.1)"
       id="g12"><g
         transform="scale(1.91411)"
         id="g14"><path
           id="path16"
           style="fill:#ffffff;fill-opacity:1;fill-rule:evenodd;stroke:none"
           d="M 0,16300 H 16300 V 0 H 0 v 16300" /></g><g
         transform="scale(1.41055)"
         id="g18"><path
           id="path20"
           style="fill:#000000;fill-opacity:1;fill-rule:nonzero;stroke:none"
           d="m 11059.5,16300 c 2894.2,0 5240.5,-2346.3 5240.5,-5240.5 C 16300,8165.3 13953.7,5819 11059.5,5819 8165.3,5819 5819,8165.3 5819,11059.5 c 0,2894.2 2346.3,5240.5 5240.5,5240.5 z m 0,-405.5 c -2670.36,0 -4835.04,-2164.6 -4835.04,-4835 0,-2670.36 2164.68,-4835.04 4835.04,-4835.04 2670.4,0 4835,2164.68 4835,4835.04 0,2670.4 -2164.6,4835 -4835,4835" /></g><g
         transform="scale(1.24572)"
         id="g22"><path
           id="path24"
           style="fill:#000000;fill-opacity:1;fill-rule:evenodd;stroke:none"
           d="M 8745.68,9363.78 C 9156.43,10690.8 10397.7,11662 11855.1,11662 h 1335.4 c 1457.4,0 2698.7,-971.2 3109.5,-2298.22 -93.2,-111.28 -191.7,-218.98 -295.4,-322.66 -926.8,-926.79 -2170.9,-1442.16 -3481.8,-1442.16 -1310.8,0 -2554.9,515.37 -3481.68,1442.16 -103.69,103.69 -202.19,211.38 -295.44,322.66" /></g><g
         transform="scale(1.25705)"
         id="g26"><path
           id="path28"
           style="fill:#000000;fill-opacity:1;fill-rule:evenodd;stroke:none"
           d="m 12410,16300 c 1174.7,0 2127,-952.3 2127,-2127 0,-1174.7 -952.3,-2126.9 -2127,-2126.9 -1174.7,0 -2126.9,952.2 -2126.9,2126.9 0,1174.7 952.2,2127 2126.9,2127" /></g></g></g></svg>